<svg version="1" xmlns="http://www.w3.org/2000/svg" width="533.333" height="533.333" viewBox="0 0 400.000000 400.000000"><path d="M0 200v200h400V0H0v200zM251.8 94.7l.3 13.3H278v25.9l13.3.3 13.2.3.3 51.2.2 51.3h-25l-.2-38.8-.3-38.7-13.7-.3-13.8-.3V292h26v25h-51l-.2-39.8-.3-39.7h-53l-.3 39.7-.2 39.8h-51v-25h26V158.9l-13.7.3-13.8.3-.3 38.7-.2 38.8H95l.2-51.3.3-51.2 13.3-.3 13.2-.3V108h26V95.2c0-7.1.3-13.2.7-13.5.3-.4 23.6-.6 51.7-.5l51.1.3.3 13.2z"/><path d="M173.7 106.7c-.4.3-.7 6.6-.7 14V134h54.1l-.3-13.8-.3-13.7-26.1-.3c-14.3-.1-26.3.1-26.7.5z"/></svg>